:SAMPLES-PER-SECOND 30
:FULLY-SPECIFIED
:DEGREES
370
root  75.045 22.8113 -17.1633 -162.849 28.5172 -176.321
RightUpLeg  -68.0297 4.67891 -30.9345
RightLeg  75.1806 7.24546 20.4509
RightFoot  -15.8326 -0.519147 -3.3548
RightToes  -70.669 -0.497218 -0.415226
Spine  22.9273 -0.552878 2.4682
Spine1  35.5663 -2.23511 4.10292
HEad  10.8275 4.35971 -2.02874
LeftShoulder1  0 -2.42657e-020 -4.95415e-022
LeftArm  -4.30585 -48.8535 -93.1064
LeftForeArm  -141.488 -17.5901 -2.80451
LeftHand  9.2978 -26.409 -38.6087
RightShoulder  0 2.42657e-020 1.07489e-018
RightArm  -63.7962 52.6814 81.9377
RightForeArm  37.2762 7.98219 1.41101
RightHand  0.547096 22.0068 3.18405
LeftUpLeg  -64.105 -8.57321 37.7294
LeftLeg  80.1963 -0.0638458 -0.295038
LeftFoot  -14.9105 -0.515096 -3.93478
LeftToes  -55.3402 1.18758e-006 1.19596e-007
371
root  76.2571 23.5644 -16.1403 -160.956 24.4437 -178.168
RightUpLeg  -68.5643 3.78636 -29.7545
RightLeg  74.6774 5.93195 16.4941
RightFoot  -17.2609 -0.468134 -2.70615
RightToes  -67.2071 -0.463558 -0.412462
Spine  22.6376 -0.390746 3.18816
Spine1  35.2739 -1.2631 5.04333
HEad  10.0239 2.76318 -0.970617
LeftShoulder1  0 -2.42657e-020 -4.95415e-022
LeftArm  -2.56583 -46.2106 -94.2442
LeftForeArm  -144.406 -19.8616 -3.24245
LeftHand  10.15 -25.7468 -42.8504
RightShoulder  0 2.42657e-020 1.07489e-018
RightArm  -68.7814 51.9671 74.2536
RightForeArm  32.7609 8.2669 1.46592
RightHand  0.568243 21.7462 3.32865
LeftUpLeg  -65.9605 -10.8294 39.9069
LeftLeg  72.9684 0.803693 2.10603
LeftFoot  -9.12678 -0.325927 -4.08182
LeftToes  -53.6898 1.18758e-006 1.19596e-007
372
root  77.4689 24.5842 -15.0685 -158.729 19.9127 -179.426
RightUpLeg  -69.21 2.27727 -27.4897
RightLeg  73.7745 5.00338 13.3367
RightFoot  -15.6988 -0.265057 -1.54499
RightToes  -64.4751 -0.437192 -0.408085
Spine  22.136 -0.401512 3.85966
Spine1  34.7005 -0.530104 5.38771
HEad  9.74493 2.65449 -0.120475
LeftShoulder1  0 -2.42657e-020 -4.95415e-022
LeftArm  -4.17322 -42.9588 -92.6023
LeftForeArm  -147.603 -23.0563 -3.88179
LeftHand  10.62 -25.2742 -45.4127
RightShoulder  0 2.42657e-020 1.07489e-018
RightArm  -75.6013 50.506 68.1039
RightForeArm  30.7703 8.96995 1.59352
RightHand  1.13068 22.4543 6.06341
LeftUpLeg  -67.2763 -11.7858 41.2104
LeftLeg  64.7134 3.2394 5.81581
LeftFoot  -2.91099 -0.0954802 -3.75644
LeftToes  -45.6025 1.18758e-006 1.19596e-007
373
root  78.5937 25.6955 -14.1346 -157.217 15.7882 179.48
RightUpLeg  -68.416 0.729153 -24.9973
RightLeg  71.1769 4.5772 10.729
RightFoot  -14.0865 -0.148882 -0.827475
RightToes  -61.157 -0.405495 -0.401088
Spine  21.6882 -0.557347 4.05742
Spine1  34.3686 -0.342584 5.24662
HEad  10.0979 3.90381 0.552366
LeftShoulder1  0 -2.42657e-020 -4.95415e-022
LeftArm  -7.22217 -40.1256 -89.4605
LeftForeArm  -152.373 -25.4655 -4.38341
LeftHand  10.9948 -24.8321 -47.6066
RightShoulder  0 2.42657e-020 1.07489e-018
RightArm  -77.8288 48.1237 64.2492
RightForeArm  30.4714 10.78 1.92129
RightHand  0.881539 22.3769 4.826
LeftUpLeg  -67.3158 -10.5721 38.8106
LeftLeg  58.0462 6.01985 8.31329
LeftFoot  0.658993 0.0170891 -2.97092
LeftToes  -28.9706 1.18758e-006 1.19596e-007
374
root  79.5533 26.7003 -13.3849 -156.688 12.4155 178.701
RightUpLeg  -66.7574 -0.26205 -22.7426
RightLeg  68.0997 4.24388 8.64446
RightFoot  -12.2182 -0.0803652 -0.373329
RightToes  -58.4696 -0.380156 -0.394083
Spine  21.1119 -0.689943 4.12985
Spine1  33.859 -0.506234 5.24055
HEad  11.7381 5.45838 -0.31932
LeftShoulder1  0 -2.42657e-020 -4.95415e-022
LeftArm  -11.3134 -36.7626 -86.9221
LeftForeArm  -154.522 -26.7107 -4.65123
LeftHand  11.3391 -25.4446 -47.8535
RightShoulder  0 2.42657e-020 1.07489e-018
RightArm  -77.8866 44.3265 60.9576
RightForeArm  25.1637 12.9124 2.31505
RightHand  1.80319 22.3695 9.47374
LeftUpLeg  -66.1795 -7.77809 33.0147
LeftLeg  55.2514 2.34925 2.94845
LeftFoot  0.557965 0.0130468 -2.67899
LeftToes  -32.2864 1.18758e-006 1.19596e-007
375
root  80.3837 27.65 -12.7684 -156.656 9.66139 178.418
RightUpLeg  -64.4148 -0.18766 -20.8864
RightLeg  64.2808 3.74063 6.49148
RightFoot  -10.2038 -0.0329721 0.00824253
RightToes  -55.9917 -0.357105 -0.386578
Spine  20.4482 -0.622051 4.08489
Spine1  33.2517 -0.437908 5.09341
HEad  12.885 7.20479 -2.8616
LeftShoulder1  0 -2.42657e-020 -4.95415e-022
LeftArm  -15.6127 -33.2836 -85.2665
LeftForeArm  -155.618 -26.9797 -4.70975
LeftHand  11.633 -25.3688 -49.0835
RightShoulder  0 2.42657e-020 1.07489e-018
RightArm  -70.8945 39.8032 58.6105
RightForeArm  16.4665 15.8029 2.85737
RightHand  2.9533 22.4208 15.1954
LeftUpLeg  -64.1093 -6.02025 27.3283
LeftLeg  55.6778 1.9974 2.54496
LeftFoot  0.547141 0.0110461 -2.31316
LeftToes  -34.0415 1.18758e-006 1.19596e-007
376
root  81.1525 28.5344 -12.2552 -156.772 6.28851 178.682
RightUpLeg  -61.3504 -0.92159 -18.351
RightLeg  60.0882 3.26721 4.81696
RightFoot  -8.3071 -0.0118813 0.213958
RightToes  -54.2843 -0.341421 -0.38083
Spine  19.4935 -0.576442 4.24358
Spine1  32.1881 -0.429125 5.05787
HEad  14.73 9.26528 -5.88972
LeftShoulder1  0 -2.42657e-020 -4.95415e-022
LeftArm  -19.6375 -29.3412 -84.2194
LeftForeArm  -156.194 -27.0185 -4.71815
LeftHand  11.731 -25.5965 -49.0496
RightShoulder  0 2.42657e-020 1.07489e-018
RightArm  -63.4853 34.9617 57.9959
RightForeArm  10.9521 19.8797 3.64847
RightHand  3.70618 23.3919 18.1401
LeftUpLeg  -61.5409 -4.73177 22.4839
LeftLeg  56.9006 3.42993 4.56617
LeftFoot  -0.902327 -0.0160344 -2.03604
LeftToes  -31.4733 1.18758e-006 1.19596e-007
377
root  81.8419 29.3191 -11.8977 -157.466 3.2372 179.23
RightUpLeg  -57.6702 -1.57605 -15.8191
RightLeg  55.7492 2.79541 3.51394
RightFoot  -6.58043 -0.00289521 0.327222
RightToes  -52.2135 -0.322639 -0.373235
Spine  18.5118 -0.405599 4.27302
Spine1  31.1459 -0.0203892 4.52527
HEad  17.2212 11.9502 -8.76234
LeftShoulder1  0 -2.42657e-020 -4.95415e-022
LeftArm  -23.7664 -25.2856 -83.4588
LeftForeArm  -157.938 -26.8759 -4.68676
LeftHand  11.8626 -26.1694 -48.549
RightShoulder  0 2.42657e-020 1.07489e-018
RightArm  -59.1967 31.1588 58.913
RightForeArm  5.68953 23.6883 4.42468
RightHand  4.17466 23.4534 20.2926
LeftUpLeg  -57.3855 -2.59279 17.8215
LeftLeg  57.723 4.72916 6.47416
LeftFoot  -4.0384 -0.0742896 -2.1069
LeftToes  -28.7939 1.18758e-006 1.19596e-007
378
root  82.4061 30.0238 -11.6887 -158.818 0.456131 179.74
RightUpLeg  -53.3398 -2.89168 -13.4066
RightLeg  51.3238 2.77434 2.98854
RightFoot  -4.7 -0.000848377 0.356929
RightToes  -51.8965 -0.319788 -0.369239
Spine  17.5888 -0.181814 4.01616
Spine1  30.215 0.632038 3.41908
HEad  19.9251 15.5051 -11.3177
LeftShoulder1  0 -2.42657e-020 -4.95415e-022
LeftArm  -27.2021 -21.047 -82.7017
LeftForeArm  -160.099 -27.0627 -4.72772
LeftHand  12.1356 -26.8266 -48.4295
RightShoulder  0 2.42657e-020 1.07489e-018
RightArm  -54.1052 27.5629 60.8363
RightForeArm  3.17735 28.9653 5.58619
RightHand  4.21998 23.2179 20.7104
LeftUpLeg  -51.8304 0.976635 13.4953
LeftLeg  57.4139 5.64565 7.62722
LeftFoot  -5.03895 -0.0883737 -2.00823
LeftToes  -27.8581 1.18758e-006 1.19596e-007
379
root  82.8807 30.6483 -11.5285 -160.006 -2.76509 -179.928
RightUpLeg  -49.0797 -4.51468 -11.4973
RightLeg  47.0139 2.34945 2.17702
RightFoot  -3.19098 0.0012426 0.422253
RightToes  -50.5157 -0.307453 -0.366505
Spine  16.3666 -0.0781785 3.73738
Spine1  28.7267 1.25953 1.98982
HEad  22.4552 19.0093 -13.109
LeftShoulder1  0 -2.42657e-020 -4.95415e-022
LeftArm  -30.4519 -16.2603 -82.2571
LeftForeArm  -161.131 -27.7135 -4.8715
LeftHand  12.2297 -26.9764 -48.5151
RightShoulder  0 2.42657e-020 1.07489e-018
RightArm  -49.1541 25.0422 62.5231
RightForeArm  2.20269 33.1323 6.59375
RightHand  4.47767 23.5507 21.6193
LeftUpLeg  -46.1932 3.96136 10.9543
LeftLeg  55.4405 6.59013 8.27669
LeftFoot  -6.26368 -0.110246 -2.01469
LeftToes  -26.377 1.18758e-006 1.19596e-007
380
root  83.2308 31.2076 -11.3853 -160.982 -7.06129 -179.649
RightUpLeg  -44.7923 -8.15636 -9.46868
RightLeg  42.6577 2.4843 1.98092
RightFoot  -1.66745 -0.00105679 0.473543
RightToes  -49.9025 -0.302017 -0.363964
Spine  15.0908 -0.190962 3.65514
Spine1  27.0445 1.56714 0.757072
HEad  24.1285 21.7422 -14.5559
LeftShoulder1  0 -2.42657e-020 -4.95415e-022
LeftArm  -32.9964 -11.6044 -82.3986
LeftForeArm  -161.633 -28.7544 -5.10493
LeftHand  12.3997 -27.0696 -48.9575
RightShoulder  0 2.42657e-020 1.07489e-018
RightArm  -44.9664 23.8976 63.6471
RightForeArm  2.44971 36.6035 7.51283
RightHand  4.54762 23.6474 21.8552
LeftUpLeg  -41.1377 5.9942 10.1091
LeftLeg  52.2425 7.45706 8.35508
LeftFoot  -6.49506 -0.10748 -1.89406
LeftToes  -24.9334 1.18758e-006 1.19596e-007
381
root  83.4944 31.682 -11.2901 -161.9 -12.0845 -179.158
RightUpLeg  -40.3559 -10.4459 -8.09733
RightLeg  38.31 0.738167 0.48997
RightFoot  -0.116594 -0.0071776 0.549071
RightToes  -49.5792 -0.299163 -0.359867
Spine  13.7729 -0.274785 3.62131
Spine1  25.1376 1.72229 0.179079
HEad  25.6773 23.5405 -15.0541
LeftShoulder1  0 -2.42657e-020 -4.95415e-022
LeftArm  -34.285 -7.26933 -83.0386
LeftForeArm  -162.509 -29.7496 -5.33266
LeftHand  12.4966 -27.1788 -49.1153
RightShoulder  0 2.42657e-020 1.07489e-018
RightArm  -41.7985 23.6967 64.4208
RightForeArm  5.08942 39.5792 8.37492
RightHand  4.57827 23.8643 21.7991
LeftUpLeg  -36.8505 7.14337 11.0445
LeftLeg  48.4898 8.01313 7.8766
LeftFoot  -6.44724 -0.0978076 -1.73645
LeftToes  -23.0139 1.18758e-006 1.19596e-007
382
root  83.6256 32.0575 -11.1868 -162.624 -17.5958 -179.107
RightUpLeg  -36.218 -13.8539 -7.28831
RightLeg  34.4372 -0.772964 -0.473852
RightFoot  1.0158 -0.00983309 0.553021
RightToes  -48.4648 -0.289384 -0.355284
Spine  12.4426 -0.414952 3.26058
Spine1  22.9582 1.59295 -0.371796
HEad  27.3145 25.0318 -14.6908
LeftShoulder1  0 -2.42657e-020 -4.95415e-022
LeftArm  -35.0424 -3.06782 -83.8087
LeftForeArm  -163.641 -31.0677 -5.64149
LeftHand  12.3719 -26.8444 -49.2336
RightShoulder  0 2.42657e-020 1.07489e-018
RightArm  -38.6506 24.6034 65.8054
RightForeArm  7.59188 41.6351 9.01711
RightHand  4.5239 23.9107 21.5088
LeftUpLeg  -33.3176 7.36891 12.5565
LeftLeg  43.6778 8.19687 6.81525
LeftFoot  -5.60545 -0.0685698 -1.40059
LeftToes  -22.2688 1.18758e-006 1.19596e-007
383
root  83.6831 32.3414 -11.1047 -163.49 -23.325 -179.002
RightUpLeg  -32.2447 -17.2887 -6.74126
RightLeg  31.2909 -2.55974 -1.34779
RightFoot  2.07126 -0.00812759 0.488781
RightToes  -47.1756 -0.27819 -0.351966
Spine  11.3315 -0.464786 2.81323
Spine1  21.0683 1.44215 -0.593597
HEad  28.9238 26.5032 -14.6859
LeftShoulder1  0 -2.42657e-020 -4.95415e-022
LeftArm  -35.5201 0.192245 -84.8567
LeftForeArm  -165.45 -32.2071 -5.91597
LeftHand  12.5983 -26.8906 -49.9492
RightShoulder  0 2.42657e-020 1.07489e-018
RightArm  -34.8488 26.3029 67.5062
RightForeArm  11.5201 43.2204 9.54391
RightHand  4.24021 23.7538 20.3414
LeftUpLeg  -30.2608 8.26839 14.5253
LeftLeg  37.4941 7.34472 4.88891
LeftFoot  -4.67587 -0.0410993 -1.00665
LeftToes  -21.7508 1.18758e-006 1.19596e-007
384
root  83.6337 32.5186 -11.0259 -164.228 -29.6341 -179.024
RightUpLeg  -28.5651 -19.6624 -7.06125
RightLeg  29.4343 -5.34293 -2.57888
RightFoot  3.0116 0.0015916 0.316929
RightToes  -47.1313 -0.277808 -0.351762
Spine  10.3667 -0.416284 2.37691
Spine1  19.3615 1.54475 -0.903878
HEad  30.4729 28.1067 -14.1445
LeftShoulder1  0 -2.42657e-020 -4.95415e-022
LeftArm  -36.2084 2.53073 -86.1336
LeftForeArm  -166.082 -32.9205 -6.0912
LeftHand  12.7622 -26.8875 -50.5251
RightShoulder  0 2.42657e-020 1.07489e-018
RightArm  -31.2527 27.909 69.7625
RightForeArm  15.4771 45.1534 10.2241
RightHand  3.84701 23.3606 18.8294
LeftUpLeg  -28.4151 9.9312 16.1366
LeftLeg  30.8819 5.51793 2.82534
LeftFoot  -3.86202 -0.0223933 -0.66419
LeftToes  -22.0808 1.18758e-006 1.19596e-007
